<svg width="1622" height="2014" viewBox="0 0 1622 2014" fill="none" xmlns="http://www.w3.org/2000/svg">
<mask id="mask0_73_643" style="mask-type:alpha" maskUnits="userSpaceOnUse" x="0" y="-1" width="1622" height="2015">
<path d="M1269.11 55.8568C1277.92 74.0028 1284.18 93.3337 1287.06 109.591L1287.87 109.723C1287.93 109.437 1287.99 109.151 1288.04 108.865C1297.05 64.6573 1326.62 34.6039 1336.32 41.7961C1344.64 47.9663 1348 72.9701 1342.6 109.723C1451.61 129.173 1534.97 160.626 1622 189.872V2014H0.00012207V157.878C209.314 102.018 472.181 68.7633 757.631 68.7633C909.086 68.7633 1054.18 78.1251 1188.3 95.2581C1177.42 71.8867 1144.22 51.4972 1147.96 41.7961C1153.41 27.6537 1203.92 40.9632 1228.51 71.5948C1221.36 47.8878 1223.28 12.4605 1228.51 3.20327C1236.14 -10.2928 1252.21 21.0708 1269.11 55.8568Z" fill="url(#paint0_linear_73_643)"/>
</mask>
<g mask="url(#mask0_73_643)">
<path d="M-64.8574 346.483C166.801 289.475 381.478 276.062 722.294 281.427C924.604 284.612 1072.21 306.939 1188.71 324.56C1268.46 336.624 1333.63 346.483 1391.8 346.483C1506.29 346.483 1652.97 337.54 1711.99 333.069L1693.77 387.649H1711.99V792.736H-87.9019V387.649H-32.8767L-64.8574 346.483Z" fill="#C9D771"/>
<path d="M1040.91 323.696C960.145 305.311 879.382 299.533 722.052 293.755C772.397 302.334 886.724 323.381 941.265 338.929C995.806 354.477 1120.62 365.368 1176.21 368.87C1158.03 359.94 1105.52 338.404 1040.91 323.696Z" fill="#D8EBA3" fill-opacity="0.47"/>
<path d="M1040.91 323.696C960.145 305.311 879.382 299.533 722.052 293.755C772.397 302.334 886.724 323.381 941.265 338.929C995.806 354.477 1120.62 365.368 1176.21 368.87C1158.03 359.94 1105.52 338.404 1040.91 323.696Z" fill="#D8EBA3" fill-opacity="0.47"/>
<path d="M1040.91 323.696C960.145 305.311 879.382 299.533 722.052 293.755C772.397 302.334 886.724 323.381 941.265 338.929C995.806 354.477 1120.62 365.368 1176.21 368.87C1158.03 359.94 1105.52 338.404 1040.91 323.696Z" fill="#D8EBA3" fill-opacity="0.47"/>
<path d="M1362.48 201.202C1027.62 251.1 721.354 428.56 610.082 511.053L1936.98 533.856L1993.49 122.062C1922.68 127.651 1697.34 151.304 1362.48 201.202Z" fill="#B8D3A3"/>
<path d="M1366.67 219.981C1031.8 269.879 725.54 447.339 614.267 529.832L1941.17 552.635L1997.68 140.841C1926.87 146.43 1701.53 170.083 1366.67 219.981Z" fill="url(#paint1_linear_73_643)"/>
<path d="M581.827 296.438C667.281 292.224 689.419 304.8 843.635 325.583C791.541 325.429 641.475 325.583 581.827 325.583C522.134 325.583 429.715 327.927 374.63 321.994C395.82 316.421 513.464 299.809 581.827 296.438Z" fill="#BBD17D" fill-opacity="0.63"/>
<path d="M1239.56 259.155C1317.37 236.128 1421.15 218.16 1577 203.214C1528.09 214.699 1463.76 227.912 1338.41 252.844C1217.02 276.988 1114.09 322.631 1059.23 329.367C1076.06 319.412 1177.31 277.577 1239.56 259.155Z" fill="#61B054" fill-opacity="0.63"/>
<path d="M246.59 416.454C330.541 405.393 385.094 429.504 517.994 439.091C461.485 435.015 311.479 440.566 252.304 445.369C193.083 450.175 101.856 459.943 46.0441 458.491C65.9743 451.256 179.43 425.303 246.59 416.454Z" fill="#B5C781" fill-opacity="0.85"/>
<path d="M1269.11 436.541C1277.92 442.837 1284.18 449.545 1287.06 455.186L1287.87 455.232C1287.93 455.132 1287.99 455.033 1288.04 454.934C1297.05 439.594 1326.62 429.166 1336.32 431.662C1344.64 433.803 1348 442.479 1342.6 455.232C1451.61 461.981 1534.97 472.894 1622 483.043V1116H0.00012207V471.941C209.314 452.558 472.181 441.019 757.631 441.019C909.086 441.019 1054.18 444.267 1188.3 450.212C1177.42 442.103 1144.22 435.028 1147.96 431.662C1153.41 426.754 1203.92 431.373 1228.51 442.002C1221.36 433.775 1223.28 421.482 1228.51 418.27C1236.14 413.587 1252.21 424.47 1269.11 436.541Z" fill="url(#paint2_linear_73_643)"/>
<path d="M1269.11 478.75C1277.92 493.366 1284.18 508.937 1287.06 522.032L1287.87 522.138C1287.93 521.908 1287.99 521.677 1288.04 521.447C1297.05 485.838 1312.21 461.668 1321.9 467.462C1330.22 472.432 1331.82 497.839 1326.42 527.443C1435.43 543.109 1534.97 563.139 1622 586.697V2056H6.86646e-05V560.926C209.314 515.932 472.181 489.146 757.631 489.146C909.086 489.146 1054.18 496.686 1188.3 510.487C1177.42 491.661 1172.33 475.238 1176.07 467.424C1181.53 456.033 1203.92 466.753 1228.51 491.426C1221.36 472.331 1219.47 455.156 1224.7 447.699C1232.33 436.828 1252.21 450.73 1269.11 478.75Z" fill="url(#paint3_linear_73_643)"/>
<path fill-rule="evenodd" clip-rule="evenodd" d="M1755.95 843.707H-142.318V945.894C-161.183 955.709 -171.618 966.506 -171.618 977.841C-171.618 1023.03 -5.76479 1059.66 198.826 1059.66C259.986 1059.66 317.684 1056.39 368.525 1050.59C436.427 1069.21 540.5 1081.13 657.171 1081.13C753.062 1081.13 840.444 1073.08 906.227 1059.87C972.011 1073.08 1059.39 1081.13 1155.28 1081.13C1257.77 1081.13 1350.53 1071.93 1417.6 1057.08C1437.1 1058.77 1457.56 1059.66 1478.64 1059.66C1589.71 1059.66 1683.44 1034.74 1712.87 1000.64H1755.95V843.707Z" fill="url(#paint4_linear_73_643)"/>
<g filter="url(#filter0_d_73_643)">
<path fill-rule="evenodd" clip-rule="evenodd" d="M-114.101 757.522L1749.71 806.264L1739.21 971.112L1638.71 968.484C1634.95 968.852 1631.18 969.157 1627.42 969.397C1607.2 970.685 1587.33 970.078 1568.95 967.61C1566.36 967.262 1563.8 966.878 1561.29 966.459L1539.69 965.894C1525.96 971.118 1510.2 975.252 1493.1 978.105C1473.64 981.351 1452.84 982.876 1431.86 982.593C1410.89 982.31 1390.17 980.225 1370.87 976.456C1354.63 973.284 1339.67 968.97 1326.58 963.698C1311.7 968.092 1295.32 972.032 1277.77 975.425C1261.34 978.599 1244.08 981.258 1226.32 983.359C1210.03 998.656 1174.34 1008.4 1134.04 1006.74C1099.83 1005.33 1070.55 996.052 1054.47 983.182C1034.72 1004.39 986.537 1018.15 931.786 1015.89C875.663 1013.58 829.735 995.154 815.539 971.683C805.228 970.022 795.142 968.171 785.355 966.141C775.629 964.124 766.263 961.944 757.315 959.617C746.847 964.218 735.593 968.073 723.801 971.082C705.062 975.865 685.33 978.422 665.731 978.606C656.601 978.692 647.584 978.262 638.789 977.329C621.303 992.585 593.023 1001.96 562.102 1000.68C524.633 999.142 494.129 982.419 483.286 960.099C467.718 966.871 448.855 970.486 428.891 969.664C411.943 968.967 396.421 965.164 383.499 959.143C364.289 992.942 314.111 1016.02 257.751 1013.7C192.888 1011.03 142.857 975.673 140.668 932.904C134.248 932.812 127.771 932.563 121.262 932.158C107.945 931.33 94.6255 929.853 81.5114 927.76L-124.597 922.37L-114.101 757.522Z" fill="url(#paint5_linear_73_643)" shape-rendering="crispEdges"/>
</g>
<g filter="url(#filter1_d_73_643)">
<path fill-rule="evenodd" clip-rule="evenodd" d="M1793.42 714.656L-71.4336 686.769L-77.4385 851.71L23.1238 853.214C26.8351 853.736 30.5622 854.195 34.297 854.589C54.3436 856.704 74.231 856.914 92.8233 855.206C95.4445 854.965 98.0322 854.687 100.584 854.372L122.192 854.695C135.376 860.472 150.691 865.245 167.472 868.794C186.561 872.832 207.172 875.208 228.129 875.787C249.085 876.366 269.975 875.136 289.608 872.167C306.136 869.668 321.5 865.977 335.087 861.254C349.492 866.25 365.449 870.855 382.628 874.961C398.702 878.803 415.664 882.166 433.179 884.992C447.907 900.926 482.547 912.115 522.934 912.115C557.215 912.115 587.356 904.054 604.692 891.871C622.276 913.844 668.989 929.553 723.852 929.553C780.091 929.553 827.767 913.046 844.28 890.206C854.736 888.971 864.985 887.539 874.955 885.915C884.863 884.302 894.427 882.51 903.59 880.556C913.576 885.577 924.422 889.886 935.889 893.373C954.111 898.916 973.547 902.278 993.087 903.266C1002.19 903.727 1011.23 903.668 1020.1 903.098C1036.03 919.041 1063.31 929.553 1094.3 929.553C1131.84 929.553 1163.95 914.117 1177.01 892.288C1191.87 899.685 1210.33 904.067 1230.33 904.067C1247.32 904.067 1263.19 900.91 1276.68 895.431C1292.48 929.95 1340.24 955.039 1396.72 955.039C1461.72 955.039 1515.18 921.808 1521.64 879.217C1528.06 879.388 1534.54 879.407 1541.08 879.27C1554.45 878.99 1567.89 878.063 1581.19 876.513L1787.41 879.597L1793.42 714.656Z" fill="url(#paint6_linear_73_643)" shape-rendering="crispEdges"/>
</g>
<g filter="url(#filter2_d_73_643)">
<path d="M-59.6287 612.995L1805.22 640.882L1799.22 805.823L1592.99 802.739C1579.7 804.289 1566.26 805.216 1552.89 805.496C1529.62 805.983 1506.97 804.505 1486 801.139L1462.24 800.784C1460.83 802.121 1459.34 803.405 1457.78 804.633C1448.59 811.858 1436.98 817.008 1423.59 819.79C1410.21 822.571 1395.32 822.929 1379.77 820.843C1364.23 818.758 1348.34 814.269 1333 807.634C1329.56 806.145 1326.16 804.554 1322.81 802.868C1308.37 807.339 1293.05 811.27 1277.19 814.566C1251.52 819.899 1224.94 823.465 1198.95 825.061C1172.96 826.656 1148.08 826.249 1125.73 823.863C1112.24 822.423 1099.83 820.28 1088.75 817.488C1080.29 820.723 1071.18 823.365 1061.58 825.361C1043.69 829.077 1024.43 830.481 1004.89 829.492C985.352 828.504 965.916 825.142 947.694 819.599C936.227 816.112 925.381 811.803 915.395 806.782C906.232 808.736 896.668 810.528 886.76 812.141C857.801 816.857 826.48 819.963 794.584 821.281C790.327 821.457 786.07 821.601 781.818 821.712C781.665 822.017 781.51 822.322 781.352 822.626C775.376 834.143 766.146 844.681 754.188 853.638C742.231 862.595 727.78 869.796 711.662 874.829C695.544 879.862 678.073 882.629 660.248 882.972C642.423 883.315 624.592 881.227 607.773 876.828C590.955 872.429 575.479 865.804 562.227 857.332C548.976 848.86 538.21 838.707 530.543 827.452C528.899 825.038 527.404 822.583 526.061 820.095C512.151 819.27 498.143 818.081 484.196 816.537C452.772 813.057 422.271 807.841 394.432 801.187C377.254 797.081 361.297 792.476 346.892 787.48C333.305 792.203 317.941 795.894 301.412 798.393C281.78 801.362 260.89 802.592 239.934 802.013C218.977 801.434 198.366 799.058 179.276 795.02C162.496 791.471 147.181 786.698 133.997 780.921L112.389 780.598C109.837 780.913 107.249 781.191 104.628 781.432C86.0358 783.14 66.1485 782.93 46.1018 780.815C42.3671 780.421 38.6399 779.962 34.9287 779.44L-65.6336 777.936L-59.6287 612.995Z" fill="url(#paint7_linear_73_643)" shape-rendering="crispEdges"/>
</g>
<g filter="url(#filter3_d_73_643)">
<path d="M1620.95 547.269H3.13916V712.255H182.044C193.524 714.003 205.147 715.13 216.733 715.611C236.89 716.445 256.576 715.306 274.865 712.255H295.478C296.658 713.613 297.906 714.919 299.222 716.17C306.96 723.53 316.871 728.853 328.388 731.833C339.905 734.814 352.804 735.395 366.347 733.542C379.89 731.689 393.813 727.439 407.32 721.035C410.351 719.598 413.348 718.059 416.302 716.423C428.688 721.109 441.845 725.268 455.493 728.8C477.579 734.515 500.518 738.478 523 740.461C545.482 742.445 567.068 742.41 586.524 740.359C598.263 739.121 609.088 737.164 618.787 734.538C626.024 737.899 633.836 740.676 642.1 742.815C657.488 746.797 674.145 748.489 691.118 747.793C708.092 747.097 725.05 744.027 741.025 738.758C751.078 735.442 760.617 731.297 769.435 726.427C777.317 728.518 785.554 730.451 794.094 732.213C819.054 737.36 846.113 740.933 873.727 742.728C877.413 742.968 881.099 743.175 884.782 743.35C884.905 743.657 885.03 743.964 885.157 744.27C889.975 755.874 897.646 766.547 907.731 775.68C917.816 784.814 930.118 792.228 943.935 797.501C957.751 802.774 972.812 805.801 988.257 806.411C1003.7 807.02 1019.23 805.199 1033.95 801.053C1048.67 796.906 1062.3 790.514 1074.06 782.243C1085.81 773.971 1095.47 763.982 1102.47 752.845C1103.97 750.456 1105.35 748.024 1106.59 745.557C1118.68 744.94 1130.86 743.961 1143 742.625C1170.36 739.616 1196.97 734.858 1221.32 728.622C1236.34 724.773 1250.32 720.408 1262.97 715.629C1274.6 720.554 1287.81 724.474 1302.06 727.219C1318.99 730.481 1337.06 732.023 1355.25 731.757C1373.44 731.492 1391.38 729.425 1408.06 725.673C1422.72 722.376 1436.15 717.833 1447.77 712.255H1466.51C1468.72 712.608 1470.95 712.925 1473.22 713.205C1489.28 715.19 1506.53 715.278 1523.98 713.463C1527.23 713.124 1530.48 712.721 1533.71 712.255H1620.95V547.269Z" fill="url(#paint8_linear_73_643)" shape-rendering="crispEdges"/>
</g>
</g>
<path fill-rule="evenodd" clip-rule="evenodd" d="M1339.27 681.574C1336.89 665.76 1328.33 651.619 1320.54 645C1313.49 651.07 1302.97 662.116 1296.73 676.279C1284.76 666.476 1270.2 660.633 1260.4 659.542C1258.24 671.116 1257.03 693.233 1268.91 712.285C1280.79 731.336 1299.74 742.168 1311.24 736.478C1312.19 736.005 1313.07 735.434 1313.86 734.772C1324.33 736.317 1339.35 732.178 1353.09 723.108C1372.74 710.133 1382.41 687.342 1382.32 674.617C1372.26 674.309 1355.42 675.3 1339.27 681.574Z" fill="url(#paint9_linear_73_643)"/>
<path fill-rule="evenodd" clip-rule="evenodd" d="M221.192 768.743C225.97 753.481 236.593 740.819 245.305 735.473C251.342 742.552 260.048 755.082 264.035 770.034C277.37 762.182 292.649 758.641 302.505 759.065C302.87 770.835 300.667 792.875 286.009 809.88C271.351 826.885 250.963 834.682 240.471 827.296C239.6 826.682 238.825 825.984 238.143 825.208C227.557 825.129 213.347 818.735 201.163 807.666C183.731 791.831 177.677 767.827 179.719 755.267C189.707 756.505 206.193 760.066 221.192 768.743Z" fill="url(#paint10_linear_73_643)"/>
<g filter="url(#filter4_f_73_643)">
<path d="M267.734 517.386L335.132 509.495L354.954 497H384.689L417.727 517.386L469.266 539.745L499 612.082L390.635 618L279.628 600.902L246.59 577.228L238 556.185L267.734 517.386Z" fill="#9DA2B8"/>
<path d="M365.527 522.647L335.792 509.495L355.615 497L361.562 509.495L395.922 517.386V527.908L365.527 522.647Z" fill="url(#paint11_linear_73_643)"/>
<path d="M267.734 517.386L313.987 550.266L378.081 556.185L417.727 577.228H455.39L469.266 539.745L499 612.082L390.635 618L279.628 600.902L246.59 577.228L238 556.185L267.734 517.386Z" fill="#525D72"/>
<path d="M319.934 569.995L314.648 551.582L333.149 545.005L325.881 548.293L356.276 543.033L322.577 556.842L319.934 569.995Z" fill="#41495E"/>
<path d="M333.81 552.239L348.347 553.554L334.471 554.212L324.559 559.473L319.934 569.337L322.577 556.842L333.81 552.239Z" fill="#ADB5CC"/>
<path d="M417.727 577.228L403.19 569.337L416.405 581.174L436.228 577.228H417.727Z" fill="#ACB4CB"/>
</g>
<path fill-rule="evenodd" clip-rule="evenodd" d="M492.847 601.869C489.343 590.391 481.675 580.833 475.416 576.775C471.142 582.053 464.992 591.407 462.23 602.603C452.651 596.639 441.708 593.899 434.666 594.164C434.474 602.993 436.177 619.541 446.754 632.379C457.331 645.218 471.95 651.18 479.407 645.695C480.026 645.24 480.577 644.72 481.059 644.142C488.626 644.14 498.746 639.42 507.392 631.182C519.76 619.396 523.947 601.419 522.414 591.984C515.282 592.858 503.518 595.44 492.847 601.869Z" fill="url(#paint12_linear_73_643)"/>
<path d="M210 592.5L242 581L249.5 595.5L242 606H199L182.5 595.5L210 592.5Z" fill="#535E73"/>
<path d="M205 572.5L225 565.5L242 581.5L209.5 592.5L182.5 595.5V587.5L205 572.5Z" fill="url(#paint13_linear_73_643)"/>
<path fill-rule="evenodd" clip-rule="evenodd" d="M247.224 596.886C249.111 590.857 253.308 585.855 256.75 583.743C259.135 586.539 262.574 591.489 264.149 597.396C269.417 594.294 275.454 592.895 279.347 593.063C279.491 597.713 278.621 606.42 272.83 613.138C267.04 619.856 258.985 622.936 254.84 620.018C254.496 619.776 254.19 619.5 253.921 619.193C249.738 619.162 244.125 616.636 239.311 612.263C232.424 606.007 230.033 596.524 230.839 591.562C234.785 592.051 241.298 593.458 247.224 596.886Z" fill="url(#paint14_linear_73_643)"/>
<g filter="url(#filter5_d_73_643)">
<path d="M482.526 591.259C484.858 596.836 494.646 598.633 504.387 595.275C514.128 591.916 520.134 584.672 517.802 579.095C515.47 573.519 505.682 571.721 495.941 575.08C486.2 578.439 480.194 585.682 482.526 591.259Z" fill="#D8C3E2"/>
<path d="M467.284 601.661C469.852 607.802 479.572 610.147 488.994 606.898C498.415 603.65 500.141 602.043 497.573 595.901C495.005 589.76 482.403 581.214 476.868 585.482C472.048 589.199 464.716 595.52 467.284 601.661Z" fill="#CDB3DA"/>
<path d="M502.988 595.724C505.556 601.865 509.7 606.875 520.427 603.176C531.155 599.477 537.769 591.5 535.2 585.359C532.632 579.218 521.854 577.238 511.127 580.937C500.399 584.636 500.42 589.583 502.988 595.724Z" fill="#D2BBDD"/>
<path d="M483.731 602.046C485.676 606.698 493.311 608.381 500.784 605.805C508.256 603.228 512.737 597.367 510.791 592.715C508.845 588.062 501.21 586.379 493.737 588.956C486.265 591.532 481.785 597.393 483.731 602.046Z" fill="url(#paint15_linear_73_643)"/>
<path d="M464.615 616.29C467.183 622.431 476.903 624.776 486.324 621.528C495.746 618.279 501.302 610.667 498.733 604.526C496.165 598.385 486.445 596.04 477.024 599.289C467.602 602.537 462.046 610.149 464.615 616.29Z" fill="#BFAAC9"/>
<path d="M464.864 616.832C468.494 619.99 475.421 618.934 483.192 616.254C492.613 613.006 499.708 608.601 497.14 602.459C497.021 602.175 496.886 601.899 496.737 601.631C497.599 602.47 498.278 603.438 498.733 604.526C501.302 610.667 495.746 618.279 486.324 621.528C477.185 624.679 467.765 622.567 464.864 616.832Z" fill="#8F8097"/>
<path d="M488.12 618.807C491.667 624.498 502.4 624.49 512.093 618.79C521.786 613.09 526.768 603.856 523.221 598.165C519.673 592.475 508.94 592.483 499.247 598.183C489.554 603.883 484.572 613.117 488.12 618.807Z" fill="#BFAAC9"/>
<path d="M486.976 614.646C491.208 619.126 501.07 618.726 510.04 613.451C517.616 608.995 522.314 602.381 522.311 596.988C522.652 597.348 522.956 597.741 523.221 598.165C526.768 603.856 521.786 613.09 512.093 618.79C502.4 624.49 491.667 624.498 488.12 618.807C487.345 617.564 486.977 616.153 486.976 614.646Z" fill="#8F8097"/>
</g>
<ellipse cx="1312.73" cy="762.756" rx="159" ry="22.5" fill="black" fill-opacity="0.67"/>
<path d="M1259.27 464.87L1282.95 462.531L1270.51 481.187L1265.74 486.593L1249.36 469.747L1259.27 464.87Z" fill="#DDB184"/>
<path d="M1266.9 464.39L1261.28 469.85L1262.93 482.514L1262.98 469.743L1266.9 464.39Z" fill="#946329"/>
<path d="M1249.36 469.747L1256.14 469.321L1261.28 469.85L1262.93 482.514L1262.98 469.743L1268.86 468.523L1274.8 468.15L1293.53 766.576L1291.04 767.583L1272.39 768.754L1268.1 768.173L1249.36 469.747Z" fill="#D79D61"/>
<path d="M1273.95 468.204L1282.95 462.531L1301.42 756.718L1292.58 764.934L1273.95 468.204Z" fill="#D29652"/>
<path d="M1254.58 552.832L1261.36 552.406L1266.49 552.701L1267.91 561.871L1268.18 552.595L1274.08 551.608L1280.01 551.235L1293.6 767.657L1291.09 768.431L1272.44 769.602L1268.16 769.254L1254.58 552.832Z" fill="#BC7C3A"/>
<path d="M1277.71 541.663L1287.64 537.138L1301.75 761.91L1291.94 768.378L1277.71 541.663Z" fill="#AC712D"/>
<path d="M1272.2 467.462L1277.23 466.295L1281.1 473.713L1278.88 465.341L1274.58 464.759L1278.03 465.394L1272.2 467.462Z" fill="#946329"/>
<path d="M1133.25 613.219L1142.58 612.634L1142.79 616.025L1131.77 616.717L1133.25 613.219Z" fill="#946C2A"/>
<path d="M1131.34 596.316L1140.66 595.731L1141.83 600.765L1129.86 599.814L1131.34 596.316Z" fill="#946C2A"/>
<path d="M1131.44 570.776L1140.76 570.191L1141.93 575.224L1129.95 574.274L1131.44 570.776Z" fill="#946C2A"/>
<path d="M1127.35 546.349L1137.58 546.559L1132.86 552.813L1127.62 550.588L1127.35 546.349Z" fill="#946C2A"/>
<path d="M1127.41 560.815L1137.63 561.024L1132.92 567.278L1127.67 565.054L1127.41 560.815Z" fill="#946C2A"/>
<path d="M1125.17 525.208L1135.4 525.417L1131.48 530.77L1125.44 529.447L1125.17 525.208Z" fill="#946C2A"/>
<path d="M1129.44 620.268L1131.77 616.717L1135.11 615.656L1140.93 613.588L1129.44 620.268Z" fill="#D0B86F"/>
<path d="M1132.56 602.198L1129.86 599.814L1134.09 599.548L1145.22 600.552L1141.88 601.612L1132.56 602.198Z" fill="#D0B86F"/>
<path d="M1132.66 576.657L1129.95 574.274L1134.19 574.008L1145.32 575.011L1141.98 576.072L1132.66 576.657Z" fill="#D0B86F"/>
<path d="M1128.19 532.678L1125.44 529.447L1129.73 530.028L1140.86 531.032L1137.52 532.093L1128.19 532.678Z" fill="#D0B86F"/>
<path d="M1131.92 592.024L1130.86 588.686L1133.46 589.374L1144.58 590.378L1140.61 594.883L1131.92 592.024Z" fill="#D0B86F"/>
<path d="M1132.18 582.645L1141.51 582.06L1139.76 594.936L1130.86 588.686L1130.7 586.143L1132.18 582.645Z" fill="#946C2A"/>
<path d="M1129.44 620.268L1420.44 591.785L1422.3 607.84L1384.2 611.083L1371.59 613.577L1349.55 614.961L1307.27 619.317L1276.64 619.538L1241.14 623.469L1223.23 622.891L1205.42 624.009L1169.98 628.788L1132.51 628.586L1129.44 620.268Z" fill="url(#paint16_linear_73_643)"/>
<path d="M1426.22 602.487L1422.3 607.84L1398.66 583.79L1397.64 526.828L1402.46 508.651L1413.36 496.902L1421.85 505.731L1423.5 518.395L1426.52 525.866L1425.94 543.776L1427.8 559.831L1426.42 565.024L1426.58 567.568L1427.75 586.219L1426.59 594.804L1426.22 602.487Z" fill="#7A3717"/>
<path d="M1131.31 514.855L1160.01 512.384L1185.16 507.459L1177.04 513.322L1193.53 505.596L1240.03 502.677L1227.56 506.805L1245.1 502.358L1268.9 502.872L1268.25 519.64L1272.61 507.991L1294.13 499.28L1330.48 496.998L1314.04 505.391L1343.16 496.202L1381.33 495.813L1374.02 500.956L1388.09 495.388L1412.82 497.182L1416.41 500.302L1417.47 503.581L1409.01 504.112L1416.75 505.634L1419.23 518.191L1414.8 515.124L1418.43 518.91L1415.17 521.122L1419.36 520.19L1420.41 523.469L1421.37 538.798L1417.53 531.679L1420.74 542.184L1419.05 542.29L1417.15 539.064L1418.2 542.343L1415.71 543.169L1420.86 544.183L1422.09 550.128L1420.39 550.235L1422.97 550.742L1423.27 555.407L1422.84 562.125L1422.2 565.511L1417.05 564.496L1421.4 566.23L1413.83 567.374L1422.33 567.51L1422.7 573.508L1420.21 574.334L1423.59 574.122L1423.25 582.173L1418.81 579.105L1421.52 581.612L1419.02 582.438L1422.44 582.892L1423.37 584.172L1423.75 590.17L1424.08 595.502L1416.48 595.98L1424.13 596.169L1423.57 600.887L1419.6 605.151L1368.07 609.055L1345.84 606.436L1354.5 609.238L1271.74 615.772L1275.63 610.175L1266.58 614.757L1202.42 620.124L1202.13 615.458L1198.95 619.003L1173.72 622.595L1174.23 617.21L1171.1 621.421L1132.17 623.196L1129.42 620.023L1140.88 613.281L1133.23 613.093L1132.52 601.762L1141.82 601.179L1131.34 596.316L1135.32 592.219L1139.71 594.62L1136.88 590.114L1130.84 588.486L1139.33 588.622L1130.67 585.82L1127.84 581.314L1131.73 575.717L1141.84 574.413L1131.42 570.777L1127.67 565.054L1135.94 561.131L1127.41 560.815L1126.21 555.321L1127.61 550.55L1130.23 551.723L1127.36 546.551L1128.71 541.113L1125.04 536.66L1127.32 532.502L1131.47 530.903L1132.91 526.798L1130.54 529.623L1125.17 525.208L1126.44 518.506L1131.31 514.855Z" fill="#D38347"/>
<defs>
<filter id="filter0_d_73_643" x="-128.597" y="757.522" width="1882.3" height="266.613" filterUnits="userSpaceOnUse" color-interpolation-filters="sRGB">
<feFlood flood-opacity="0" result="BackgroundImageFix"/>
<feColorMatrix in="SourceAlpha" type="matrix" values="0 0 0 0 0 0 0 0 0 0 0 0 0 0 0 0 0 0 127 0" result="hardAlpha"/>
<feOffset dy="4"/>
<feGaussianBlur stdDeviation="2"/>
<feComposite in2="hardAlpha" operator="out"/>
<feColorMatrix type="matrix" values="0 0 0 0 0 0 0 0 0 0 0 0 0 0 0 0 0 0 0.25 0"/>
<feBlend mode="normal" in2="BackgroundImageFix" result="effect1_dropShadow_73_643"/>
<feBlend mode="normal" in="SourceGraphic" in2="effect1_dropShadow_73_643" result="shape"/>
</filter>
<filter id="filter1_d_73_643" x="-81.4385" y="686.769" width="1878.86" height="276.269" filterUnits="userSpaceOnUse" color-interpolation-filters="sRGB">
<feFlood flood-opacity="0" result="BackgroundImageFix"/>
<feColorMatrix in="SourceAlpha" type="matrix" values="0 0 0 0 0 0 0 0 0 0 0 0 0 0 0 0 0 0 127 0" result="hardAlpha"/>
<feOffset dy="4"/>
<feGaussianBlur stdDeviation="2"/>
<feComposite in2="hardAlpha" operator="out"/>
<feColorMatrix type="matrix" values="0 0 0 0 0 0 0 0 0 0 0 0 0 0 0 0 0 0 0.25 0"/>
<feBlend mode="normal" in2="BackgroundImageFix" result="effect1_dropShadow_73_643"/>
<feBlend mode="normal" in="SourceGraphic" in2="effect1_dropShadow_73_643" result="shape"/>
</filter>
<filter id="filter2_d_73_643" x="-66.6338" y="612.995" width="1876.86" height="277.013" filterUnits="userSpaceOnUse" color-interpolation-filters="sRGB">
<feFlood flood-opacity="0" result="BackgroundImageFix"/>
<feColorMatrix in="SourceAlpha" type="matrix" values="0 0 0 0 0 0 0 0 0 0 0 0 0 0 0 0 0 0 127 0" result="hardAlpha"/>
<feOffset dx="2" dy="4"/>
<feGaussianBlur stdDeviation="1.5"/>
<feComposite in2="hardAlpha" operator="out"/>
<feColorMatrix type="matrix" values="0 0 0 0 0.119358 0 0 0 0 0.229167 0 0 0 0 0.109809 0 0 0 0.25 0"/>
<feBlend mode="normal" in2="BackgroundImageFix" result="effect1_dropShadow_73_643"/>
<feBlend mode="normal" in="SourceGraphic" in2="effect1_dropShadow_73_643" result="shape"/>
</filter>
<filter id="filter3_d_73_643" x="2.13916" y="547.269" width="1623.81" height="266.256" filterUnits="userSpaceOnUse" color-interpolation-filters="sRGB">
<feFlood flood-opacity="0" result="BackgroundImageFix"/>
<feColorMatrix in="SourceAlpha" type="matrix" values="0 0 0 0 0 0 0 0 0 0 0 0 0 0 0 0 0 0 127 0" result="hardAlpha"/>
<feOffset dx="2" dy="4"/>
<feGaussianBlur stdDeviation="1.5"/>
<feComposite in2="hardAlpha" operator="out"/>
<feColorMatrix type="matrix" values="0 0 0 0 0.119358 0 0 0 0 0.229167 0 0 0 0 0.109809 0 0 0 0.25 0"/>
<feBlend mode="normal" in2="BackgroundImageFix" result="effect1_dropShadow_73_643"/>
<feBlend mode="normal" in="SourceGraphic" in2="effect1_dropShadow_73_643" result="shape"/>
</filter>
<filter id="filter4_f_73_643" x="237" y="496" width="263" height="123" filterUnits="userSpaceOnUse" color-interpolation-filters="sRGB">
<feFlood flood-opacity="0" result="BackgroundImageFix"/>
<feBlend mode="normal" in="SourceGraphic" in2="BackgroundImageFix" result="shape"/>
<feGaussianBlur stdDeviation="0.5" result="effect1_foregroundBlur_73_643"/>
</filter>
<filter id="filter5_d_73_643" x="459.988" y="573.388" width="79.7661" height="57.6819" filterUnits="userSpaceOnUse" color-interpolation-filters="sRGB">
<feFlood flood-opacity="0" result="BackgroundImageFix"/>
<feColorMatrix in="SourceAlpha" type="matrix" values="0 0 0 0 0 0 0 0 0 0 0 0 0 0 0 0 0 0 127 0" result="hardAlpha"/>
<feOffset dy="4"/>
<feGaussianBlur stdDeviation="2"/>
<feComposite in2="hardAlpha" operator="out"/>
<feColorMatrix type="matrix" values="0 0 0 0 0 0 0 0 0 0 0 0 0 0 0 0 0 0 0.25 0"/>
<feBlend mode="normal" in2="BackgroundImageFix" result="effect1_dropShadow_73_643"/>
<feBlend mode="normal" in="SourceGraphic" in2="effect1_dropShadow_73_643" result="shape"/>
</filter>
<linearGradient id="paint0_linear_73_643" x1="811" y1="12.7151" x2="807.542" y2="568.19" gradientUnits="userSpaceOnUse">
<stop stop-color="#C8E87D"/>
<stop offset="1" stop-color="#238833"/>
</linearGradient>
<linearGradient id="paint1_linear_73_643" x1="1305.97" y1="140.841" x2="1305.97" y2="552.635" gradientUnits="userSpaceOnUse">
<stop stop-color="#5B9353"/>
<stop offset="1" stop-color="#567752"/>
</linearGradient>
<linearGradient id="paint2_linear_73_643" x1="811" y1="421.571" x2="810.584" y2="614.322" gradientUnits="userSpaceOnUse">
<stop stop-color="#C8E87D"/>
<stop offset="1" stop-color="#238833"/>
</linearGradient>
<linearGradient id="paint3_linear_73_643" x1="811" y1="444" x2="811" y2="1675.5" gradientUnits="userSpaceOnUse">
<stop stop-color="#76BF54"/>
<stop offset="0.296875" stop-color="#4B8752"/>
<stop offset="0.503166" stop-color="#134D41"/>
<stop offset="0.720946" stop-color="#0B2520"/>
<stop offset="1"/>
</linearGradient>
<linearGradient id="paint4_linear_73_643" x1="792.164" y1="843.707" x2="792.164" y2="1081.13" gradientUnits="userSpaceOnUse">
<stop stop-color="#00B191" stop-opacity="0"/>
<stop offset="1" stop-color="#00362C"/>
</linearGradient>
<linearGradient id="paint5_linear_73_643" x1="822.193" y1="768.101" x2="811.958" y2="1008.3" gradientUnits="userSpaceOnUse">
<stop stop-color="#44FF78" stop-opacity="0"/>
<stop offset="1" stop-color="#035B56"/>
</linearGradient>
<linearGradient id="paint6_linear_73_643" x1="857.99" y1="686.769" x2="858.34" y2="926.871" gradientUnits="userSpaceOnUse">
<stop stop-color="#44FF78" stop-opacity="0"/>
<stop offset="1" stop-color="#08674B"/>
</linearGradient>
<linearGradient id="paint7_linear_73_643" x1="848.672" y1="626.578" x2="844.795" y2="885.847" gradientUnits="userSpaceOnUse">
<stop stop-color="#8FFF69" stop-opacity="0"/>
<stop offset="1" stop-color="#177149"/>
</linearGradient>
<linearGradient id="paint8_linear_73_643" x1="832.975" y1="547.269" x2="832.975" y2="806.525" gradientUnits="userSpaceOnUse">
<stop stop-color="#6AB252" stop-opacity="0"/>
<stop offset="1" stop-color="#246045"/>
</linearGradient>
<linearGradient id="paint9_linear_73_643" x1="1325.36" y1="644.986" x2="1321.61" y2="710.981" gradientUnits="userSpaceOnUse">
<stop stop-color="#ADC062"/>
<stop offset="0.616342" stop-color="#2A9C81" stop-opacity="0.5625"/>
<stop offset="1" stop-color="#14697B" stop-opacity="0"/>
</linearGradient>
<linearGradient id="paint10_linear_73_643" x1="240.543" y1="734.72" x2="234.131" y2="800.51" gradientUnits="userSpaceOnUse">
<stop stop-color="#ADC062"/>
<stop offset="0.616342" stop-color="#2A9C81" stop-opacity="0.5625"/>
<stop offset="1" stop-color="#14697B" stop-opacity="0"/>
</linearGradient>
<linearGradient id="paint11_linear_73_643" x1="321.176" y1="520.17" x2="440.074" y2="641.113" gradientUnits="userSpaceOnUse">
<stop stop-color="#777A92"/>
<stop offset="1" stop-color="#8D93A7"/>
</linearGradient>
<linearGradient id="paint12_linear_73_643" x1="463.335" y1="588.578" x2="466.642" y2="621.907" gradientUnits="userSpaceOnUse">
<stop stop-color="#ADC062"/>
<stop offset="0.616342" stop-color="#2A9C81" stop-opacity="0.5625"/>
<stop offset="1" stop-color="#14697B" stop-opacity="0"/>
</linearGradient>
<linearGradient id="paint13_linear_73_643" x1="216.5" y1="562" x2="194" y2="583.5" gradientUnits="userSpaceOnUse">
<stop offset="0.041827" stop-color="#9EA3B9"/>
<stop offset="1" stop-color="#8C8E96"/>
</linearGradient>
<linearGradient id="paint14_linear_73_643" x1="254.869" y1="583.445" x2="252.335" y2="609.436" gradientUnits="userSpaceOnUse">
<stop stop-color="#ADC062"/>
<stop offset="0.616342" stop-color="#2A9C81" stop-opacity="0.5625"/>
<stop offset="1" stop-color="#14697B" stop-opacity="0"/>
</linearGradient>
<linearGradient id="paint15_linear_73_643" x1="499.871" y1="573.388" x2="524.979" y2="607.03" gradientUnits="userSpaceOnUse">
<stop stop-color="#97044A"/>
<stop offset="1" stop-color="#3F0822"/>
</linearGradient>
<linearGradient id="paint16_linear_73_643" x1="1140.35" y1="617.88" x2="1399.2" y2="605.886" gradientUnits="userSpaceOnUse">
<stop stop-color="#9C5E22"/>
<stop offset="1" stop-color="#915623"/>
</linearGradient>
</defs>
</svg>
